PathFileType	4	(X/Y/Z)	s02c0102.trc
DataRate	CameraRate	NumFrames	NumMarkers	Units	OrigDataRate	OrigDataStartFrame	OrigNumFrames
200	200	6	51	mm	200	1500	2000
Frame#	Time	racr			lacr			c7			jug			rlel			rdr			llel			ldr			s2			lic			ric			lasi			rasi			rpsi			lpsi			rgt			lgt			rth1			rth2			rth3			rth4			rlfc			rmfc			rsh1			rsh2			rsh3			rsh4			rlmal			rmmal			rcal			rtoe			rmt5			rmt1			lth1			lth2			lth4			lth3			llfc			lmfc			lsh1			lsh2			lsh3			lsh4			llmal			lmmal			lcal			ltoe			lmt5			SBIKE			LBIKE			RBIKE			
		X1	Y1	Z1	X2	Y2	Z2	X3	Y3	Z3	X4	Y4	Z4	X5	Y5	Z5	X6	Y6	Z6	X7	Y7	Z7	X8	Y8	Z8	X9	Y9	Z9	X10	Y10	Z10	X11	Y11	Z11	X12	Y12	Z12	X13	Y13	Z13	X14	Y14	Z14	X15	Y15	Z15	X16	Y16	Z16	X17	Y17	Z17	X18	Y18	Z18	X19	Y19	Z19	X20	Y20	Z20	X21	Y21	Z21	X22	Y22	Z22	X23	Y23	Z23	X24	Y24	Z24	X25	Y25	Z25	X26	Y26	Z26	X27	Y27	Z27	X28	Y28	Z28	X29	Y29	Z29	X30	Y30	Z30	X31	Y31	Z31	X32	Y32	Z32	X33	Y33	Z33	X34	Y34	Z34	X35	Y35	Z35	X36	Y36	Z36	X37	Y37	Z37	X38	Y38	Z38	X39	Y39	Z39	X40	Y40	Z40	X41	Y41	Z41	X42	Y42	Z42	X43	Y43	Z43	X44	Y44	Z44	X45	Y45	Z45	X46	Y46	Z46	X47	Y47	Z47	X48	Y48	Z48	X49	Y49	Z49	X50	Y50	Z50	X51	Y51	Z51	
1500	7.5000	556.819105	1209.649364	-141.584736	572.404736	1201.961513	-464.647808	553.403185	1234.246711	-305.421091	508.451922	1097.405369	-302.431279	557.986492	963.601961	-41.857997	719.595024	849.656290	-125.013858	530.122046	960.938136	-608.232217	700.895621	842.938910	-518.843043	16.297342	1113.422925	-337.298258	155.183431	1108.784364	-474.445870	134.944054	1115.301075	-186.958901	188.947927	1076.915567	-443.377316	187.735704	1085.349595	-211.381740	45.813464	1168.424714	-292.411357	57.385845	1179.520419	-374.448944	113.234684	1032.140126	-150.677626	101.718839	1025.813022	-515.359140	194.278477	978.396135	-141.409703	273.811766	940.149869	-142.876221	324.080871	874.382619	-121.270483	293.942240	962.306061	-165.772354	412.648312	758.189666	-155.243374	405.740649	739.020304	-263.337292	411.699854	644.103267	-136.994217	419.137866	556.562974	-154.529303	384.715235	477.324552	-150.934634	430.498519	557.581222	-192.627274	350.218840	364.469659	-155.759966	361.298107	383.572394	-236.880718	276.483305	313.834935	-195.967445	564.221683	304.603565	-192.830287	454.302645	291.281416	-132.773964	481.220607	308.775543	-238.970553	228.068333	951.921205	-516.205963	307.535672	916.723030	-512.157789	326.848490	940.392498	-491.720585	359.635879	844.609203	-518.123111	423.969962	767.984017	-496.978197	420.779412	734.673620	-393.472112	363.372132	683.933060	-516.494907	314.877995	614.423488	-500.042428	234.105663	573.583853	-504.137684	329.644440	601.590104	-463.231975	144.641971	514.079130	-493.320799	160.248988	500.226476	-416.419464	68.318262	526.611084	-449.907364	232.899361	292.232728	-438.894977	150.135576	357.434625	-505.368967	-165.073581	857.246923	-316.113851	32.872245	81.931622	-515.228243	32.958812	82.101397	-115.057994	
1501	7.5050	557.071915	1208.556057	-141.851748	571.449634	1202.826830	-466.033117	553.249817	1234.435177	-306.352452	507.035184	1098.004898	-304.112140	559.617983	963.314358	-40.550681	720.119036	848.992793	-124.583291	530.426109	961.161790	-609.101576	700.988181	843.113365	-518.950059	16.887166	1111.685828	-336.401559	156.059827	1107.000470	-473.089357	136.264411	1113.281407	-185.856226	189.094498	1076.022237	-442.188006	189.119018	1083.452136	-210.611194	46.429081	1165.179242	-290.738721	57.962920	1176.775629	-373.174628	113.778480	1029.722083	-149.567408	103.003076	1025.060229	-515.081283	195.164907	974.631505	-140.382928	273.628012	934.305062	-142.566118	322.611596	867.538373	-120.726325	295.006263	956.808476	-164.169560	408.476881	749.254034	-155.093655	401.806349	730.220514	-262.514447	407.884212	635.711564	-136.250675	416.196896	548.156480	-153.635479	382.200620	468.739781	-150.029125	427.614001	549.146802	-191.693753	349.151525	355.629448	-154.851833	359.837843	374.783902	-235.890006	274.746557	306.050133	-194.886158	562.372396	292.255236	-193.052040	452.514679	280.701412	-132.528951	479.300745	298.136066	-238.724909	230.407497	953.858088	-516.119566	310.750326	920.818195	-512.105596	329.503504	944.860094	-491.690814	364.767109	849.956303	-518.269310	430.451446	774.779841	-497.139654	427.427210	741.599922	-393.490024	369.264850	691.446256	-516.115572	319.955939	622.520303	-499.946397	238.604121	582.804489	-503.855026	334.813936	609.484233	-463.323500	148.426961	524.584775	-492.946690	164.566129	510.915501	-416.223400	71.984122	537.023128	-449.079411	235.692100	302.364337	-438.943758	153.265071	368.036810	-505.265854	-165.070704	857.274272	-316.229500	32.889303	81.873729	-515.271115	32.427872	82.580923	-115.186559	
1502	7.5100	557.352323	1207.748138	-142.309108	570.383516	1203.934568	-467.492351	553.029178	1234.960645	-307.418750	505.557661	1098.956334	-305.926376	561.248459	963.254970	-39.424456	720.760667	848.342115	-124.188718	530.736629	961.473321	-609.565815	701.430308	843.435836	-519.368890	17.573905	1109.653993	-335.279517	157.152342	1105.678165	-472.745228	137.604829	1111.347438	-184.752806	189.401500	1075.463821	-441.658235	190.934542	1081.951646	-209.579569	47.438657	1161.279277	-289.641632	58.729214	1173.752759	-372.002599	114.767972	1027.016800	-149.301182	104.390281	1024.392318	-514.653016	196.561078	971.260666	-138.092759	273.683270	928.756774	-141.935018	321.392196	860.828853	-120.056221	295.954590	951.234880	-162.198966	404.345827	740.747333	-154.721604	397.859176	721.618897	-261.561741	403.581356	627.434386	-135.300755	412.676066	539.945323	-152.484476	379.203652	460.288282	-148.847353	424.251402	541.017974	-190.456476	347.445165	346.992281	-153.844320	357.419002	366.492702	-234.792883	271.939302	299.140660	-193.231608	559.971726	280.144449	-193.303666	450.107725	270.315059	-132.274709	476.709010	287.556125	-238.552351	232.658359	956.108337	-515.857406	313.795460	925.137316	-512.225688	332.046013	949.597857	-491.723499	369.507576	855.506833	-518.400938	436.784161	781.898736	-497.161637	433.775219	748.833836	-393.450474	375.242334	699.129836	-515.913777	325.261063	630.831070	-499.724056	243.432105	592.008659	-503.563427	340.197040	617.835250	-463.744499	152.535902	534.934567	-492.554274	167.707628	521.069626	-415.800622	75.825309	547.579907	-448.830510	239.131990	312.389427	-439.015874	157.022902	378.587353	-505.385032	-165.068354	857.401600	-316.010420	32.897460	81.920282	-515.224941	32.974950	82.105140	-115.062868	
1503	7.5150	557.667319	1207.382855	-142.910745	569.139512	1205.279442	-469.015291	552.644645	1235.781302	-308.656574	504.374415	1100.057110	-307.749493	563.085573	963.427530	-38.572677	721.564294	847.902613	-123.874898	531.015139	961.827976	-609.684420	701.884883	843.596272	-519.291984	18.276559	1107.589976	-333.861512	156.582450	1105.893102	-473.446312	138.998854	1109.719738	-183.664494	189.726670	1075.013868	-440.989839	192.335791	1080.490442	-208.797456	48.521582	1157.650387	-288.244558	58.569973	1171.320585	-370.467511	115.898724	1024.668903	-148.719494	105.744182	1023.809066	-513.955446	197.641057	967.375178	-137.728207	273.828822	923.217881	-141.115548	319.823173	854.182699	-119.370150	296.254747	944.820279	-162.139528	400.112973	732.227262	-155.170910	393.849226	713.198726	-260.414355	398.881070	619.649730	-134.158508	408.425457	532.340197	-150.699660	375.801072	452.171933	-147.439545	420.524172	533.234792	-188.819051	345.079699	338.597695	-152.691871	355.153706	358.161296	-233.475915	269.089137	292.194134	-192.104424	556.697113	268.194561	-193.307122	446.943341	259.973917	-131.975168	473.509159	277.071526	-238.150379	234.683415	958.625728	-515.443667	316.600032	929.686470	-512.237685	334.336833	954.540244	-491.781062	373.917066	861.323626	-518.623707	442.945390	789.417774	-497.045914	439.746558	756.348501	-393.353997	381.180687	707.034920	-515.682018	330.564727	639.174831	-499.366716	248.375112	601.049881	-503.124747	345.531878	626.432175	-464.049537	156.799368	545.065733	-492.125458	171.937304	531.029059	-415.274828	79.818493	557.713530	-448.624956	243.268940	322.475372	-439.127615	161.357449	388.862019	-505.322331	-165.006875	857.512024	-315.834757	32.898592	81.900510	-515.239922	32.992287	82.089108	-115.070471	
1504	7.5200	558.008718	1207.499262	-143.715852	567.821820	1206.768572	-470.629041	552.254066	1236.946289	-310.043399	503.065000	1101.554057	-309.580709	564.967290	963.919141	-38.132595	722.144783	847.623678	-124.507489	531.291311	962.176698	-609.441358	702.286285	843.674547	-519.463075	18.927942	1105.701770	-332.338161	155.645220	1106.670101	-474.315643	140.344204	1108.123441	-182.543549	189.992208	1074.834236	-440.271208	193.670671	1079.406296	-207.944813	49.469669	1154.299626	-286.928436	58.158690	1169.222757	-368.874794	117.251772	1022.329861	-148.173471	107.054216	1023.315075	-513.065618	198.744057	963.585158	-137.072034	273.901939	917.609517	-140.232123	318.328718	847.433999	-118.561466	296.813054	938.276018	-162.329704	395.429008	724.496375	-153.462264	389.504900	705.139006	-259.218573	393.473245	612.064569	-132.620051	403.715290	524.409709	-150.032007	371.995013	444.399212	-146.097161	416.267738	525.892984	-187.308939	342.367660	330.628783	-151.504871	351.949915	350.183635	-232.258743	265.655426	285.667026	-190.688539	552.933065	256.306593	-193.397666	443.379357	249.967969	-131.591503	469.709053	266.925212	-237.970150	236.549371	961.383554	-514.926083	319.144643	934.403022	-512.186983	336.391283	959.650549	-491.663052	377.981960	867.387604	-518.651159	448.682274	797.165559	-496.866353	445.264532	764.117241	-393.201098	387.070541	714.958401	-515.207374	335.916037	647.607095	-498.892866	253.443876	610.067218	-502.724735	350.865495	634.808541	-463.661653	161.422435	554.962920	-491.584006	176.513737	540.936525	-414.810378	84.407977	567.515669	-448.259928	248.186830	332.596926	-439.178210	166.304539	399.059903	-505.179676	-164.978908	857.521036	-316.069795	32.915841	81.893281	-515.241349	33.003853	82.077878	-115.069474	
1505	7.5250	558.416585	1208.104401	-144.830515	566.321888	1208.379470	-472.293375	551.756619	1238.415946	-311.592146	501.836196	1103.295021	-311.397713	566.878855	964.815506	-38.226761	722.788888	847.477999	-124.556992	531.465757	962.511831	-608.934004	703.005390	844.148563	-519.402894	19.365880	1104.112522	-330.843090	155.839085	1105.938575	-472.712165	141.779057	1107.026204	-181.301929	190.269812	1075.033769	-439.696101	194.972353	1078.481856	-207.043974	49.314902	1152.590843	-285.276712	57.772455	1167.533565	-367.303269	118.670834	1020.161102	-147.446496	108.335373	1023.037517	-511.957532	199.621340	959.745236	-136.274722	273.795000	912.050132	-139.171011	316.282354	840.766746	-117.684218	297.239232	932.164277	-161.347029	390.262229	716.814953	-152.179135	384.795377	697.307430	-257.870983	388.187243	604.775889	-131.404618	399.142541	517.533751	-148.380307	367.797890	437.056595	-144.763349	411.699892	518.736302	-185.921650	339.164536	323.056607	-150.298847	348.152768	343.094492	-230.816547	261.859952	279.527184	-189.036588	548.593811	244.767936	-193.841659	439.402928	240.552067	-131.325463	465.411122	257.234444	-237.578115	238.201494	964.431509	-514.521364	321.429705	939.389547	-512.025431	338.149284	965.016359	-491.514670	381.713041	873.618249	-518.477673	454.356670	805.095171	-496.301385	451.284735	772.390543	-391.502403	392.862592	723.113011	-514.799561	341.226010	656.085941	-498.322984	258.557355	618.942011	-502.088106	356.148559	643.305917	-463.131133	166.166937	564.514952	-490.999107	181.129507	550.604584	-414.189177	88.914152	576.750118	-447.865992	253.686289	342.376183	-439.157501	171.704683	408.857887	-505.022173	-164.947630	857.469552	-316.153371	32.915095	81.929013	-515.224613	32.996101	82.084750	-115.063340	
